<svg width="52" height="50" viewBox="0 0 52 50" fill="none" xmlns="http://www.w3.org/2000/svg">
<g filter="url(#filter0_d)">
<path d="M18.7169 33.3754C18.7169 33.5434 18.5129 33.6777 18.2556 33.6777C17.9629 33.7029 17.7589 33.5686 17.7589 33.3754C17.7589 33.2074 17.9629 33.073 18.2202 33.073C18.4863 33.0479 18.7169 33.1822 18.7169 33.3754ZM15.9581 32.9975C15.896 33.1654 16.0734 33.3586 16.3395 33.409C16.5702 33.493 16.8363 33.409 16.8895 33.241C16.9427 33.073 16.7742 32.8799 16.5081 32.8043C16.2774 32.7455 16.0202 32.8295 15.9581 32.9975ZM19.879 32.8547C19.6218 32.9135 19.4444 33.0731 19.471 33.2662C19.4976 33.4342 19.7282 33.5434 19.9944 33.4846C20.2516 33.4258 20.429 33.2662 20.4024 33.0982C20.3758 32.9387 20.1363 32.8295 19.879 32.8547ZM25.7161 0.671875C13.4121 0.671875 4 9.51543 4 21.1641C4 30.4779 10.1919 38.4481 19.0363 41.2531C20.1718 41.4463 20.571 40.7828 20.571 40.2369C20.571 39.7162 20.5444 36.8439 20.5444 35.0803C20.5444 35.0803 14.3347 36.34 13.0306 32.5775C13.0306 32.5775 12.0194 30.1336 10.5645 29.5037C10.5645 29.5037 8.53306 28.1852 10.7065 28.2104C10.7065 28.2104 12.9153 28.3783 14.1306 30.3772C16.0734 33.6189 19.329 32.6867 20.5976 32.1324C20.8016 30.7887 21.3782 29.8564 22.0169 29.3022C17.0581 28.7814 12.0548 28.1012 12.0548 20.0219C12.0548 17.7123 12.729 16.5533 14.1484 15.0752C13.9177 14.5293 13.1637 12.2785 14.379 9.37266C16.2331 8.82676 20.5 11.6402 20.5 11.6402C22.2742 11.1699 24.1815 10.9264 26.071 10.9264C27.9605 10.9264 29.8677 11.1699 31.6419 11.6402C31.6419 11.6402 35.9089 8.81836 37.7629 9.37266C38.9782 12.2869 38.2242 14.5293 37.9935 15.0752C39.4129 16.5617 40.2823 17.7207 40.2823 20.0219C40.2823 28.1264 35.0573 28.773 30.0984 29.3022C30.9145 29.9656 31.6065 31.2254 31.6065 33.199C31.6065 36.0293 31.5798 39.5314 31.5798 40.2201C31.5798 40.766 31.9879 41.4295 33.1145 41.2363C41.9855 38.4481 48 30.4779 48 21.1641C48 9.51543 38.0202 0.671875 25.7161 0.671875ZM12.6226 29.6381C12.5073 29.7221 12.5339 29.9152 12.6847 30.0748C12.8266 30.2092 13.0306 30.268 13.146 30.1588C13.2613 30.0748 13.2347 29.8816 13.0839 29.7221C12.9419 29.5877 12.7379 29.5289 12.6226 29.6381ZM11.6645 28.9578C11.6024 29.067 11.6911 29.2014 11.8685 29.2854C12.0105 29.3693 12.1879 29.3441 12.25 29.2266C12.3121 29.1174 12.2234 28.983 12.046 28.899C11.8685 28.8486 11.7266 28.8738 11.6645 28.9578ZM14.5387 31.9477C14.3968 32.0568 14.45 32.3088 14.654 32.4684C14.8581 32.6615 15.1153 32.6867 15.2306 32.5523C15.346 32.4432 15.2927 32.1912 15.1153 32.0316C14.9202 31.8385 14.654 31.8133 14.5387 31.9477ZM13.5274 30.7131C13.3855 30.7971 13.3855 31.0154 13.5274 31.2086C13.6694 31.4018 13.9089 31.4857 14.0242 31.4018C14.1661 31.2926 14.1661 31.0742 14.0242 30.8811C13.9 30.6879 13.6694 30.6039 13.5274 30.7131Z" fill="white"/>
</g>
<defs>
<filter id="filter0_d" x="0" y="0" width="52" height="51" filterUnits="userSpaceOnUse" color-interpolation-filters="sRGB">
<feFlood flood-opacity="0" result="BackgroundImageFix"/>
<feColorMatrix in="SourceAlpha" type="matrix" values="0 0 0 0 0 0 0 0 0 0 0 0 0 0 0 0 0 0 127 0"/>
<feOffset dy="4"/>
<feGaussianBlur stdDeviation="2"/>
<feColorMatrix type="matrix" values="0 0 0 0 0 0 0 0 0 0 0 0 0 0 0 0 0 0 0.25 0"/>
<feBlend mode="normal" in2="BackgroundImageFix" result="effect1_dropShadow"/>
<feBlend mode="normal" in="SourceGraphic" in2="effect1_dropShadow" result="shape"/>
</filter>
</defs>
</svg>
