<svg width="52" height="52" viewBox="0 0 52 52" fill="none" xmlns="http://www.w3.org/2000/svg">
<g filter="url(#filter0_d)">
<path d="M13.8489 43.3132H4.72679V14.3963H13.8489V43.3132ZM9.28295 10.4517C6.36598 10.4517 4 8.07343 4 5.20204C4 3.82281 4.55659 2.50007 5.54734 1.5248C6.53808 0.549538 7.88182 0.00164032 9.28295 0.00164032C10.6841 0.00164032 12.0278 0.549538 13.0186 1.5248C14.0093 2.50007 14.5659 3.82281 14.5659 5.20204C14.5659 8.07343 12.1989 10.4517 9.28295 10.4517ZM47.9902 43.3132H38.8877V29.2366C38.8877 25.8818 38.8189 21.5796 34.1449 21.5796C29.4021 21.5796 28.6754 25.2244 28.6754 28.9949V43.3132H19.563V14.3963H28.312V18.3408H28.4396C29.6575 16.0688 32.6324 13.6712 37.0707 13.6712C46.3029 13.6712 48 19.6557 48 27.4287V43.3132H47.9902Z" fill="white"/>
</g>
<defs>
<filter id="filter0_d" x="0" y="0" width="52" height="57.5" filterUnits="userSpaceOnUse" color-interpolation-filters="sRGB">
<feFlood flood-opacity="0" result="BackgroundImageFix"/>
<feColorMatrix in="SourceAlpha" type="matrix" values="0 0 0 0 0 0 0 0 0 0 0 0 0 0 0 0 0 0 127 0"/>
<feOffset dy="4"/>
<feGaussianBlur stdDeviation="2"/>
<feColorMatrix type="matrix" values="0 0 0 0 0 0 0 0 0 0 0 0 0 0 0 0 0 0 0.25 0"/>
<feBlend mode="normal" in2="BackgroundImageFix" result="effect1_dropShadow"/>
<feBlend mode="normal" in="SourceGraphic" in2="effect1_dropShadow" result="shape"/>
</filter>
</defs>
</svg>
